<svg version="1.1" xmlns="http://www.w3.org/2000/svg" xmlns:xlink="http://www.w3.org/1999/xlink" width="983" height="473"
	 viewBox="0 0 246 108.5" style="enable-background:new 0 0 246 108.5;" xml:space="preserve">
<style type="text/css">
	.st0{clip-path:url(#SVGID_2_);fill:url(#SVGID_3_);}
	.st1{clip-path:url(#SVGID_5_);fill:url(#SVGID_6_);}
	.st2{clip-path:url(#SVGID_8_);fill:url(#SVGID_9_);}
	.st3{clip-path:url(#SVGID_13_);fill:url(#SVGID_14_);}
	.st4{clip-path:url(#SVGID_16_);fill:url(#SVGID_17_);}
	.st5{clip-path:url(#SVGID_19_);fill:url(#SVGID_20_);}
</style>
<g>
	<defs>
		<polygon id="SVGID_1_" points="219.9,42.1 216.9,41.6 215,34.4 219.3,27.6 217.7,17.8 219.2,13.6 213.7,13.2 210.5,9.2 216.1,3.4 
			207.6,2.5 195.1,11.6 197,14.4 187.7,20.6 186.7,17.7 183.6,20.1 181.5,24.1 177.7,22.8 169.4,25.5 170.7,29.5 164,34.7 
			158.4,30.1 143.6,33.1 146.6,27.3 138.9,23.1 119.2,33.7 107.2,30.3 102.4,41 97,34.4 94.7,36.6 82.7,31.4 62.7,30.2 67.2,27.6 
			72.3,27.6 75.8,25.1 70.9,14.7 64.8,12.6 53,24.8 40.2,30.4 41.7,34.2 37.7,36.8 36.7,44.5 32.8,49 33.6,54.2 26.8,55.3 
			25.7,52.2 23.5,52.9 21.2,50 16.3,50.3 17.6,55.2 15.5,54.4 14,56.9 13,58.8 15.3,61.6 21.7,62 20.1,56.1 23.6,57.6 27.6,61.4 
			21.8,62.2 22.4,74.8 27,84.3 31,82.1 34,78.5 42.3,78.9 41.8,70.7 53.3,68.6 56.5,73.9 68.1,81.2 67.4,78.3 71.7,74 86.4,76.2 
			89.5,84.2 97.5,84.2 97.9,94 103.3,95.3 110,103.4 120.7,99.8 123.2,100 123.4,102.4 129.4,103.6 131.7,101.9 129.7,99.5 
			131.8,97.1 136.7,98.4 137.1,100.9 140.5,102.3 143.9,100.6 154.8,103.3 159,99.8 167.3,99.4 169.8,91.7 167.5,89.9 170.9,86.4 
			176.2,85.9 184.3,93.6 189.3,93.2 192.3,96.4 199,90.6 199.1,94.6 205.6,97.5 207.8,86.6 203.4,72.7 195.3,72.7 194.8,75.9 
			189.4,75.2 192.9,63.1 192.5,58 204.8,48.6 203.9,37.1 208.4,38.1 208.2,30.1 211.2,33.1 211.2,50.2 220.2,59.7 225.8,60.9 		"/>
	</defs>
	<clipPath id="SVGID_2_">
		<use xlink:href="#SVGID_1_"  style="overflow:visible;"/>
	</clipPath>
	
		<linearGradient id="SVGID_3_" gradientUnits="userSpaceOnUse" x1="-23" y1="142.9146" x2="-22" y2="142.9146" gradientTransform="matrix(70.9779 65.4259 65.4259 -70.9779 -7614.3589 11686.9482)">
		<stop  offset="0" style="stop-color:#27509B"/>
		<stop  offset="1" style="stop-color:#84C4F0"/>
	</linearGradient>
	<polygon class="st0" points="110.8,-103.5 276.2,48.9 128,209.6 -37.4,57.2 	"/>
</g>
<g>
	<defs>
		<path id="SVGID_4_" d="M35.2,44.9c-0.1,0-6.5,0.5-16.7,3.2c-5.9,1.6-9.3,3.2-11.3,4.5c-2,1.3-2.5,2.5-2.5,3.4v0v0
			c0,1.2,0.8,2.3,2.3,3.4c2.2,1.6,5.8,3.1,11,4.4c5.1,1.3,13.7,2.5,21.7,3.3c0.2,0,0.4-0.1,0.4-0.3c0-0.2-0.1-0.4-0.4-0.4
			c-10.6-1.1-20.7-2.8-26.2-4.7c-2.7-0.9-4.8-1.9-6.1-2.9c-1.3-1-2-1.9-2-2.8c0-0.6,0.3-1.5,2.2-2.8c1.8-1.3,5.2-2.8,11-4.4
			c5-1.4,8.9-2.1,10.9-2.5c1.6-0.3,5.3-0.7,5.4-0.7l0.1,0c0.2,0,0.4-0.2,0.4-0.4C35.6,45,35.4,44.9,35.2,44.9
			C35.2,44.9,35.2,44.9,35.2,44.9"/>
	</defs>
	<clipPath id="SVGID_5_">
		<use xlink:href="#SVGID_4_"  style="overflow:visible;"/>
	</clipPath>
	
		<linearGradient id="SVGID_6_" gradientUnits="userSpaceOnUse" x1="-23" y1="142.9742" x2="-22" y2="142.9742" gradientTransform="matrix(104.1901 33.8181 33.8181 -104.1901 -2407.1311 15733.3213)">
		<stop  offset="0" style="stop-color:#989797"/>
		<stop  offset="0.18" style="stop-color:#FFFFFF"/>
		<stop  offset="0.68" style="stop-color:#FFFFFF"/>
		<stop  offset="1" style="stop-color:#FFFFFF"/>
	</linearGradient>
	<polygon class="st1" points="8.1,34.5 46.7,47 36.8,77.6 -1.8,65.1 	"/>
</g>
<g>
	<defs>
		<path id="SVGID_7_" d="M181.5,42.4c-0.4,0.1-0.8,0.2-1.1,0.5c-0.2,0.2-2.3,2.6-2.6,3c-1.8,2-3.4,3.9-5.3,5.9
			c-0.4,0.5-0.9,1-1.4,1.4c-0.9,0.9-1.3,1.3-2.4,1.9c-1.3,0.7-4.4,3.5-5.5,4.5c-1.7,1.6-4.2,3.9-5.8,5.5c-0.4,0.4-1,0.9-1.5,1.4
			c-0.2,0.2-0.9,0.8-1,1.1c-0.1,0.3-0.6,1.1-0.7,1.3c-1.4,2-3.6,3.1-5.6,4.5c-3.1,2.2-6.6,5.2-9,8c-0.4,0.5-1.6,1.8-1.9,2.3
			c-0.2,0.3-0.4,0.6-0.5,0.8c-0.3,0.6-0.3,0.6,0.2,0.7c1.2,0.3,2.4,0.3,3.6-0.1c1.5-0.5,2.7-1.2,3.7-2.1c1.4-1.1,1.6-1.8,2.7-2.9
			c1.6-1.8,3.5-3.6,5-5.5c1.2-1.5,2.4-2.7,4.3-3.6c0.3-0.1,0.8-0.3,1-0.5c2.4-2.3,5-4.5,7.5-6.7c2-1.8,4.3-3.6,5.7-5.6
			c0.2-0.3,0.4-0.5,0.6-0.8c1.7-1.9,9.2-7.9,11.6-9.8c0.6-0.6,1-0.8,1.2-1.5c0.2-0.8,0.2-1.6-0.3-2.4c-0.4-0.8-1.3-1.4-2.2-1.4
			C181.8,42.4,181.6,42.4,181.5,42.4"/>
	</defs>
	<clipPath id="SVGID_8_">
		<use xlink:href="#SVGID_7_"  style="overflow:visible;"/>
	</clipPath>
	
		<linearGradient id="SVGID_9_" gradientUnits="userSpaceOnUse" x1="-23" y1="142.9997" x2="-22" y2="142.9997" gradientTransform="matrix(190.2388 0 0 -190.2388 4400.3394 27268.1484)">
		<stop  offset="0" style="stop-color:#989797"/>
		<stop  offset="0.18" style="stop-color:#FFFFFF"/>
		<stop  offset="0.68" style="stop-color:#FFFFFF"/>
		<stop  offset="1" style="stop-color:#989797"/>
	</linearGradient>
	<rect x="136.9" y="42.4" class="st2" width="47.7" height="43.3"/>
</g>
<g>
	<defs>
		<rect id="SVGID_10_" x="-23" y="-7.4" width="269" height="150.4"/>
	</defs>
	<clipPath id="SVGID_11_">
		<use xlink:href="#SVGID_10_"  style="overflow:visible;"/>
	</clipPath>
</g>
<g>
	<defs>
		<path id="SVGID_12_" d="M67.1,38.1C67.1,38.1,67.1,38.1,67.1,38.1c-0.3,0-0.5,0.2-0.5,0.4l-0.1,1.1c-0.9,0.7-1.9,2-1.9,3.1
			c0,0.9,0.5,1.4,0.8,1.7v3.2l-4.2,8.9l-1-0.9L60.2,54c0-0.2-0.2-0.4-0.4-0.4c-0.2,0-0.4,0.2-0.4,0.4l-0.1,1.5l-1.7,1.6l-0.7-0.5
			l-0.1-1.8c0-0.2-0.2-0.4-0.4-0.4c-0.2,0-0.4,0.2-0.4,0.4l-0.1,1.8c-0.7,0.5-3.3,2.2-3.4,3.8c-0.1,1.3,0.5,2,0.9,2.2v3.7h-1.1v-4.1
			c0-0.1-0.1-0.3-0.1-0.3c-0.1-0.1-0.2-0.1-0.3-0.1l-0.3,0.1l-0.6-1.5c0-0.1-0.2-0.3-0.3-0.3c-0.2-0.1-0.3,0.1-0.4,0.2l-0.7,1.5
			h-0.1v-4c0-0.1,0-0.2-0.1-0.3l-0.8-0.9v-6.3c0-0.2-0.2-0.4-0.4-0.4h-1l-0.9-6.9c0-0.2-0.2-0.3-0.4-0.3c-0.2,0-0.4,0.1-0.4,0.3
			L44.4,50h-1c-0.2,0-0.4,0.2-0.4,0.4v6.3l-0.8,0.9c0,0.1-0.1,0.2-0.1,0.3v4h-0.1l-0.6-1.5c-0.1-0.2-0.3-0.3-0.4-0.3
			c-0.2,0-0.3,0.1-0.4,0.3l-0.6,1.5l-0.3-0.1c-0.1-0.1-0.3,0-0.3,0.1c-0.1,0.1-0.1,0.2-0.1,0.3v4c0,0,0,0.9,0.5,0.9h0.3
			c0.1-0.1,0.1-0.2,0.1-0.3v-4h0.1c0.2,0,0.4-0.1,0.5-0.3l0.3-0.9l0.3,0.8c0.1,0.2,0.3,0.3,0.4,0.3h0.9c0.2,0,0.4-0.2,0.4-0.4v-4.2
			l0.9-1c0-0.1,0.1-0.2,0.1-0.3v-5.9h0.7c0.2,0,0.4-0.1,0.4-0.3l0.6-4.3l0.6,4.3c0,0.2,0.2,0.3,0.4,0.3h0.7v6c0,0.1,0,0.2,0.1,0.3
			l1,0.9v4.2c0,0.2,0.4,0.4,0.6,0.4h0.7c0.1,0,0.3-0.1,0.3-0.2l0.5-0.9l0.3,0.9c0.1,0.2,0.3,0.3,0.5,0.3h0.1v4
			c0,0.2,0.2,0.4,0.4,0.4h1.9c0.2,0,0.4-0.2,0.4-0.4v-4.4c0-0.2-0.1-0.3-0.3-0.4c0,0-0.7-0.3-0.6-1.6c0.1-1,1.8-2.4,3.1-3.2l1,0.7
			c0.2,0.1,0.4,0.1,0.5,0l1.9-1.8l1.4,1.3c0.1,0.1,0.2,0.1,0.3,0.1c0.1,0,0.2-0.1,0.3-0.2l4.5-9.5c0.1-0.1,0.1-0.1,0.1-0.2v-3.5
			c0-0.1-0.1-0.3-0.2-0.3c0,0-0.6-0.4-0.6-1.1c0-0.7,0.8-1.9,1.6-2.4c0.8,0.5,1.6,1.7,1.6,2.4c0,0.7-0.6,1.1-0.6,1.1
			C68.1,43.8,68,44,68,44.1v3.4c0,0.1,0.1,0.1,0.1,0.2c0.1,0.1,3.5,6.9,4.8,9.1c0.1,0.1,0.1,0.3,0.3,0.5c0.8,1.1,3,4.4,2.6,5.6
			c-0.7,1.8-1.6,1.5-1.7,1.5c-0.1,0-0.3,0-0.4,0.1c-0.1,0.1-0.2,0.2-0.2,0.3v2c0,0.2,0.2,0.4,0.4,0.4c0.2,0,0.4-0.2,0.4-0.3v-1.6
			c0.3,0,0.5-0.1,0.8-0.2c0.7-0.3,1.1-0.9,1.5-1.9c0.4-1.2-0.5-3.1-1.7-5c0,0,0.1-0.1,0.1-0.1c0.8-1.3,2.9-2.7,3.4-3l1.1,0.9
			c0.1,0.1,0.4,0.1,0.5-0.1c0.7-0.8,2.2-2.4,2.8-2.9c1.1,0.9,3.6,3.1,3.7,4.4c0.1,1.5-0.7,1.9-0.7,1.9c-0.2,0.1-0.3,0.3-0.3,0.4v6.7
			c0,0.2,0.2,0.4,0.4,0.4h2.4c0.1,0,0.2-0.1,0.3-0.1c0.1-0.1,0.1-0.1,0.1-0.3l-0.1-13.1l0.4-0.3C89,53.1,89,53,89,52.8v-2.9l0.3-2
			l0.2,2v2.9c0,0.1,0,0.3,0.1,0.3l0.4,0.3v3.1v0.9l0.1,4.8c0,0.1,0.1,0.3,0.2,0.3c0.1,0.1,0.3,0.1,0.4,0l2.2-1.3
			c0.1-0.1,0.2-0.2,0.2-0.3L93,59.4c0-0.1,0-0.1-0.1-0.2c-0.6-0.8-0.7-1.6-0.5-2.3c0.4-1.2,1.7-2.1,2.9-2.5c1.4,0.3,2.6,1.3,3,2.4
			c0.3,0.9,0.2,1.7-0.3,2.3c0,0.1-0.1,0.2-0.1,0.3V61c0,0.1,0,0.3,0.1,0.3l1.1,0.8v1.7c0,0.2,0.2,0.4,0.4,0.4h1.2v3.4
			c0,0.2,0.2,0.4,0.4,0.4h8.5c0.2,0,0.4-0.2,0.3-0.4c0-0.2-0.2-0.4-0.4-0.4h-8.1v-3.4c0-0.2-0.2-0.4-0.4-0.4h-1.2V62
			c0-0.1,0-0.3-0.1-0.3l-1.1-0.8v-1.3c0.7-0.9,0.8-2,0.4-3c-0.5-1.5-1.9-2.6-3.4-3v-3.2c0-0.2-0.2-0.4-0.4-0.4
			c-0.2,0-0.4,0.2-0.4,0.4v3.3c-1.3,0.5-2.7,1.5-3.2,3c-0.3,0.9-0.2,2,0.5,2.9l0.1,1.3l-1.3,0.8l-0.1-4.1v-0.9v-3.3
			c0-0.1,0-0.3-0.1-0.3l-0.4-0.3V50V50l-0.5-5.6c0-0.3-0.2-0.4-0.4-0.4c-0.2,0-0.4,0.1-0.4,0.3l-0.7,5.6V50v2.7L87.8,53
			c-0.1,0.1-0.1,0.2-0.1,0.3l0.1,12.9h-1.6v-6.1c0.4-0.3,1.1-1,1-2.6c-0.1-1.8-3.2-4.4-4-5L83,51.2c0-0.3-0.2-0.4-0.4-0.4
			s-0.4,0.2-0.4,0.4l-0.1,1.3c-0.4,0.4-1.8,1.8-2.6,2.7l-0.8-0.6l-0.1-1c0-0.2-0.2-0.3-0.4-0.3c-0.2,0-0.4,0.2-0.4,0.4l-0.1,0.9
			c-0.6,0.4-2.6,1.8-3.5,3.1c-0.2-0.2-0.3-0.5-0.5-0.7c-0.2-0.2-0.3-0.4-0.3-0.5c-1.2-2-4.3-8.2-4.7-9v-3.2c0.3-0.3,0.8-0.8,0.8-1.7
			c0-1.1-1-2.4-1.9-3.1l-0.1-1.1c0-0.3-0.2-0.4-0.4-0.4C67.2,38.1,67.2,38.1,67.1,38.1"/>
	</defs>
	<clipPath id="SVGID_13_">
		<use xlink:href="#SVGID_12_"  style="overflow:visible;"/>
	</clipPath>
	
		<linearGradient id="SVGID_14_" gradientUnits="userSpaceOnUse" x1="-23" y1="143" x2="-22" y2="143" gradientTransform="matrix(190.2388 0 0 -190.2388 4400.3394 27257.2051)">
		<stop  offset="0" style="stop-color:#989797"/>
		<stop  offset="0.18" style="stop-color:#FFFFFF"/>
		<stop  offset="0.68" style="stop-color:#FFFFFF"/>
		<stop  offset="1" style="stop-color:#989797"/>
	</linearGradient>
	<rect x="39.3" y="38.1" class="st3" width="70.7" height="29.9"/>
</g>
<g>
	<defs>
		<path id="SVGID_15_" d="M221.7,47.1c0,0.3,0.3,0.5,0.3,0.5c2,0.6,4.4,1.4,6.6,2.3c2,0.8,4,1.8,5.3,2.8c0.7,0.5,1.2,1,1.6,1.6
			c0.4,0.5,0.6,1,0.6,1.6c0,1.1-0.7,2.2-2,3.2c-2.4,1.7-6.7,3.1-12.1,4.2c-16.2,3.2-41.9,3.6-54.1,3.6c-2.2,0-3.9,0-5.1,0
			c-1.2,0-1.9,0-1.9,0c-0.2,0-0.4,0.2-0.4,0.4c0,0.2,0.2,0.4,0.4,0.4c0,0,2.7,0.1,7,0.1c9.4,0,26.5-0.2,41.4-1.8
			c7.4-0.8,14.3-1.9,19.3-3.4c2.5-0.8,4.6-1.7,6-2.7c1.4-1,2.3-2.3,2.3-3.8c0-0.8-0.3-1.6-0.9-2.3c-1-1.2-2.6-2.3-4.5-3.2
			c-2.9-1.5-6.5-2.7-9.3-3.5c0,0,0,0,0,0C222,46.8,221.7,46.8,221.7,47.1"/>
	</defs>
	<clipPath id="SVGID_16_">
		<use xlink:href="#SVGID_15_"  style="overflow:visible;"/>
	</clipPath>
	
		<linearGradient id="SVGID_17_" gradientUnits="userSpaceOnUse" x1="-23" y1="143.0458" x2="-22" y2="143.0458" gradientTransform="matrix(73.262 -54.3086 -54.3086 -73.262 9594.1465 9330.9736)">
		<stop  offset="0" style="stop-color:#989797"/>
		<stop  offset="0.4399" style="stop-color:#FFFFFF"/>
		<stop  offset="0.5368" style="stop-color:#FFFFFF"/>
		<stop  offset="0.9733" style="stop-color:#989797"/>
		<stop  offset="1" style="stop-color:#989797"/>
	</linearGradient>
	<polygon class="st4" points="150.6,54.1 209.8,10.3 246.8,60.1 187.6,104 	"/>
</g>
<g>
	<defs>
		<path id="SVGID_18_" d="M204.8,43.6c0,0.2,0.1,0.4,0.3,0.4c0,0,0.3,0,0.8,0.1c0.7,0.1,3.2,0.6,4.6,0.8c0,0,0.4-0.1,0.4-0.4
			s-0.4-0.4-0.4-0.4c-2.4-0.4-5.3-0.9-5.3-0.9c0,0,0,0,0,0C205,43.2,204.8,43.4,204.8,43.6"/>
	</defs>
	<clipPath id="SVGID_19_">
		<use xlink:href="#SVGID_18_"  style="overflow:visible;"/>
	</clipPath>
	
		<linearGradient id="SVGID_20_" gradientUnits="userSpaceOnUse" x1="-23" y1="143.0002" x2="-22" y2="143.0002" gradientTransform="matrix(4.0278 -3.6368 -3.6368 -4.0278 813.806 542.4924)">
		<stop  offset="0" style="stop-color:#989797"/>
		<stop  offset="0.4399" style="stop-color:#FFFFFF"/>
		<stop  offset="0.5368" style="stop-color:#FFFFFF"/>
		<stop  offset="0.9733" style="stop-color:#989797"/>
		<stop  offset="1" style="stop-color:#989797"/>
	</linearGradient>
	<polygon class="st5" points="203.9,44 208.1,40.2 211.7,44.2 207.5,48 	"/>
</g>
</svg>
